<?xml version="1.0" standalone="no"?>
<!DOCTYPE svg PUBLIC "-//W3C//DTD SVG 20010904//EN"
 "http://www.w3.org/TR/2001/REC-SVG-20010904/DTD/svg10.dtd">
<svg version="1.0" xmlns="http://www.w3.org/2000/svg"
 width="2048.000000pt" height="2048.000000pt" viewBox="0 0 2048.000000 2048.000000"
 preserveAspectRatio="xMidYMid meet">
<metadata>
Created by potrace 1.11, written by Peter Selinger 2001-2013
</metadata>
<g transform="translate(0.000000,2048.000000) scale(0.100000,-0.100000)"
fill="#000000" stroke="none">
<path d="M17355 19095 c-75 -20 -486 -120 -535 -130 -8 -2 -82 -20 -165 -40
-185 -45 -162 -40 -274 -65 -52 -11 -98 -23 -102 -25 -4 -3 -38 -12 -75 -20
-38 -8 -125 -28 -194 -45 -69 -17 -134 -33 -145 -35 -11 -2 -38 -9 -60 -14
-22 -6 -107 -27 -190 -46 -82 -20 -177 -42 -210 -51 -33 -8 -70 -17 -82 -20
-12 -2 -171 -40 -355 -85 -183 -44 -344 -82 -358 -85 -14 -3 -70 -17 -125 -30
-55 -14 -107 -27 -115 -29 -64 -14 -222 -52 -730 -175 -264 -64 -528 -127
-625 -150 -144 -34 -483 -116 -705 -170 -164 -40 -398 -96 -605 -146 -11 -3
-31 -7 -43 -10 -13 -3 -114 -27 -225 -54 -111 -26 -272 -65 -357 -85 -85 -21
-272 -66 -415 -101 -143 -34 -272 -65 -285 -68 -14 -3 -101 -24 -195 -46 -93
-23 -177 -43 -186 -45 -9 -2 -33 -8 -55 -14 -31 -9 -213 -52 -319 -76 -11 -3
-47 -11 -80 -20 -96 -23 -478 -116 -500 -120 -11 -2 -38 -9 -60 -14 -69 -18
-379 -92 -400 -97 -11 -2 -76 -17 -145 -35 -69 -17 -132 -32 -140 -34 -78 -17
-132 -30 -230 -55 -63 -16 -126 -31 -140 -33 -14 -3 -110 -26 -215 -52 -104
-25 -199 -48 -210 -50 -11 -3 -50 -12 -87 -21 l-68 -16 0 -42 c-3 -229 0
-2507 3 -2526 25 -170 89 -289 234 -435 106 -105 114 -111 513 -347 135 -80
358 -212 495 -294 138 -82 262 -156 277 -164 15 -8 189 -112 388 -230 198
-118 375 -223 392 -234 18 -10 154 -90 303 -179 148 -88 282 -167 297 -176 15
-9 167 -99 338 -201 171 -102 334 -198 363 -214 29 -15 59 -34 68 -42 8 -8 18
-14 22 -14 3 0 34 -17 69 -39 35 -21 248 -148 473 -281 226 -133 442 -262 480
-285 94 -57 565 -337 590 -351 27 -14 240 -141 505 -299 118 -71 224 -134 235
-139 11 -6 155 -92 320 -190 459 -274 667 -397 700 -416 17 -9 60 -36 98 -58
37 -23 70 -42 73 -42 2 0 17 -9 32 -19 15 -10 140 -85 277 -167 227 -134 432
-255 727 -431 91 -54 107 -68 106 -88 l-2 -23 -66 23 c-55 20 -170 54 -320 95
-42 11 -161 37 -210 45 -19 3 -57 10 -85 15 -27 5 -77 12 -110 16 -33 3 -69 8
-79 10 -129 24 -699 24 -856 -1 -14 -2 -50 -7 -80 -10 -65 -7 -282 -45 -291
-51 -3 -2 -20 -6 -37 -9 -151 -26 -447 -121 -627 -201 -22 -10 -42 -18 -45
-19 -14 -2 -178 -87 -270 -138 -631 -357 -1068 -896 -1210 -1492 -11 -44 -22
-97 -26 -119 -3 -21 -8 -48 -10 -60 -17 -80 -22 -319 -10 -451 9 -100 17 -150
51 -303 38 -170 143 -403 278 -617 23 -37 146 -200 184 -245 84 -98 269 -279
399 -390 75 -64 284 -210 394 -274 82 -47 294 -152 375 -185 44 -18 89 -36
100 -41 148 -69 576 -177 810 -205 28 -4 61 -8 74 -10 162 -27 758 -27 898 -1
10 2 43 7 74 10 31 4 67 9 80 11 13 3 41 7 63 11 35 5 198 39 236 49 8 2 43
11 78 20 76 18 350 109 407 135 22 10 69 30 105 45 69 29 252 123 335 172 528
315 922 763 1097 1248 62 170 89 291 114 495 3 30 6 714 6 1520 0 1639 4 1539
-72 1697 -35 71 -60 103 -152 199 -123 126 -92 106 -698 464 -124 73 -245 145
-270 160 -25 16 -61 37 -80 48 -19 10 -91 53 -160 94 -69 41 -237 142 -375
223 -137 82 -356 211 -485 288 -129 77 -248 148 -265 157 -16 10 -104 62 -195
115 -91 54 -223 133 -295 175 -71 42 -204 121 -295 175 -91 54 -178 105 -195
115 -16 10 -111 66 -210 125 -99 59 -195 116 -214 127 -54 31 -254 149 -281
167 -14 8 -34 21 -45 27 -11 6 -177 104 -370 219 -192 114 -363 215 -380 225
-85 50 -353 208 -835 495 -294 175 -548 325 -565 335 -16 9 -52 31 -80 47 -27
17 -250 149 -495 293 -245 144 -461 273 -480 285 -19 12 -125 76 -235 140
-110 65 -246 146 -303 179 -57 34 -118 69 -135 80 -105 60 -204 121 -217 132
-13 11 -15 72 -15 441 l0 428 70 16 c104 24 675 162 870 210 94 22 181 43 194
46 14 2 28 6 31 8 4 2 21 7 39 10 35 6 212 49 276 66 22 6 51 13 65 16 14 2
70 16 125 29 55 14 107 27 115 29 28 6 194 46 315 75 233 56 422 102 585 141
91 23 175 43 187 45 12 2 94 22 182 44 88 22 168 42 178 43 10 2 29 7 43 10
52 14 406 99 430 103 14 3 117 28 230 56 113 27 212 51 220 53 8 2 92 22 185
45 94 23 177 43 185 45 9 2 195 47 415 100 220 53 407 98 415 100 40 9 418
100 934 225 158 38 292 70 296 70 4 0 8 -463 8 -1028 l0 -1028 -72 -43 c-39
-23 -154 -94 -256 -157 -102 -62 -225 -139 -275 -169 -49 -31 -97 -60 -105
-65 -54 -34 -712 -436 -740 -452 -19 -11 -57 -35 -85 -53 -27 -18 -138 -85
-245 -150 -107 -64 -211 -128 -230 -140 -19 -13 -136 -85 -260 -160 -474 -290
-637 -389 -685 -420 -27 -17 -107 -67 -177 -109 -71 -43 -130 -82 -133 -86 -3
-5 19 -22 47 -39 29 -17 47 -31 41 -31 -7 0 -13 -4 -13 -9 0 -8 27 -27 110
-74 76 -43 307 -180 332 -198 15 -11 29 -19 32 -19 3 0 71 -40 153 -89 81 -48
249 -148 373 -221 124 -73 307 -182 408 -242 143 -86 187 -108 205 -102 12 4
24 10 27 13 3 4 57 38 120 75 63 38 138 84 165 102 28 17 120 74 205 126 85
52 355 218 600 368 245 150 457 280 472 289 14 9 82 50 150 92 378 233 476
293 503 309 90 53 780 479 838 517 65 44 163 141 192 193 40 70 74 154 90 221
16 69 17 241 17 2392 0 1275 -1 2320 -4 2322 -2 2 -21 0 -41 -5 -35 -8 -38 -7
-36 13 3 48 -2 77 -13 76 -7 0 -53 -11 -103 -24z"/>
<path d="M10201 11645 c-57 -36 -106 -65 -111 -65 -5 0 -10 -3 -12 -7 -1 -5
-15 -15 -31 -23 -26 -14 -395 -239 -467 -284 -19 -13 -53 -34 -75 -48 -22 -14
-152 -94 -290 -178 -137 -83 -262 -160 -277 -171 -15 -10 -31 -19 -36 -19 -4
0 -17 -7 -27 -15 -11 -9 -256 -160 -545 -337 -289 -176 -570 -349 -625 -384
-192 -121 -292 -254 -339 -450 -16 -66 -17 -207 -18 -1906 l0 -1836 -117 39
c-64 22 -125 42 -136 44 -252 61 -356 84 -394 89 -25 3 -71 10 -101 16 -30 5
-80 12 -110 14 -30 3 -91 9 -135 13 -154 15 -606 8 -735 -12 -14 -2 -50 -6
-80 -10 -30 -3 -77 -10 -105 -15 -27 -5 -66 -12 -85 -15 -19 -4 -55 -11 -80
-16 -25 -6 -54 -12 -65 -14 -80 -12 -386 -106 -520 -160 -130 -53 -155 -64
-266 -120 -135 -67 -416 -237 -439 -265 -3 -3 -23 -19 -46 -35 -132 -96 -371
-330 -476 -465 -143 -185 -253 -381 -327 -578 -45 -122 -95 -319 -106 -417 -4
-33 -9 -71 -11 -85 -6 -37 -5 -308 1 -355 2 -22 7 -60 10 -85 32 -258 149
-567 309 -820 175 -275 512 -611 820 -817 116 -78 120 -80 281 -167 303 -163
665 -285 1035 -350 239 -42 358 -51 665 -51 214 0 402 8 460 20 21 5 54 9 140
20 28 4 70 11 95 17 25 5 59 12 75 15 66 10 277 67 394 105 961 314 1650 992
1835 1809 3 14 8 44 11 65 4 21 8 50 10 64 20 116 24 412 8 500 -5 25 -8 227
-7 450 1 223 5 1125 9 2005 7 1677 12 2575 14 2587 1 7 107 78 116 78 2 0 43
25 90 55 46 30 87 55 90 55 2 0 24 13 47 29 24 16 361 224 750 462 389 239
738 453 775 476 38 23 75 46 83 50 8 3 38 21 65 39 57 37 700 431 730 448 11
6 33 20 48 30 l28 19 -51 30 c-38 22 -48 32 -40 41 7 9 4 16 -13 24 -12 6 -40
23 -62 37 -22 13 -60 36 -85 50 -25 14 -54 31 -65 38 -45 28 -508 303 -980
582 -137 81 -262 156 -277 166 -15 10 -31 19 -35 19 -4 0 -19 9 -33 20 -14 11
-32 20 -41 20 -9 0 -62 -29 -118 -65z"/>
</g>
</svg>
